<mxfile host="Electron" agent="Mozilla/5.0 (Windows NT 10.0; Win64; x64) AppleWebKit/537.36 (KHTML, like Gecko) draw.io/27.0.5 Chrome/134.0.6998.205 Electron/35.3.0 Safari/537.36" version="27.0.5">
  <diagram id="Ht1M8jgEwFfnCIfOTk4-" name="Page-1">
    <mxGraphModel dx="1642" dy="2175" grid="1" gridSize="10" guides="1" tooltips="1" connect="1" arrows="1" fold="1" page="1" pageScale="1" pageWidth="1169" pageHeight="827" math="0" shadow="0">
      <root>
        <mxCell id="0" />
        <mxCell id="1" parent="0" />
        <mxCell id="MMq51jOwDCAHuKI7-5PV-2" value="AWS Cloud" style="points=[[0,0],[0.25,0],[0.5,0],[0.75,0],[1,0],[1,0.25],[1,0.5],[1,0.75],[1,1],[0.75,1],[0.5,1],[0.25,1],[0,1],[0,0.75],[0,0.5],[0,0.25]];outlineConnect=0;gradientColor=none;html=1;whiteSpace=wrap;fontSize=12;fontStyle=0;container=1;pointerEvents=0;collapsible=0;recursiveResize=0;shape=mxgraph.aws4.group;grIcon=mxgraph.aws4.group_aws_cloud_alt;strokeColor=#232F3E;fillColor=none;verticalAlign=top;align=left;spacingLeft=30;fontColor=#232F3E;dashed=0;" vertex="1" parent="1">
          <mxGeometry x="400" y="-760" width="1560" height="1520" as="geometry" />
        </mxCell>
        <mxCell id="MMq51jOwDCAHuKI7-5PV-5" value="Region" style="points=[[0,0],[0.25,0],[0.5,0],[0.75,0],[1,0],[1,0.25],[1,0.5],[1,0.75],[1,1],[0.75,1],[0.5,1],[0.25,1],[0,1],[0,0.75],[0,0.5],[0,0.25]];outlineConnect=0;gradientColor=none;html=1;whiteSpace=wrap;fontSize=12;fontStyle=0;container=1;pointerEvents=0;collapsible=0;recursiveResize=0;shape=mxgraph.aws4.group;grIcon=mxgraph.aws4.group_region;strokeColor=#00A4A6;fillColor=none;verticalAlign=top;align=left;spacingLeft=30;fontColor=#147EBA;dashed=1;" vertex="1" parent="MMq51jOwDCAHuKI7-5PV-2">
          <mxGeometry x="40" y="200" width="1400" height="1240" as="geometry" />
        </mxCell>
        <mxCell id="MMq51jOwDCAHuKI7-5PV-30" value="" style="rounded=0;orthogonalLoop=1;jettySize=auto;html=1;" edge="1" parent="MMq51jOwDCAHuKI7-5PV-5" source="MMq51jOwDCAHuKI7-5PV-17" target="MMq51jOwDCAHuKI7-5PV-18">
          <mxGeometry relative="1" as="geometry" />
        </mxCell>
        <mxCell id="MMq51jOwDCAHuKI7-5PV-17" value="&lt;div&gt;Frontend&lt;/div&gt;API Gataway&lt;div&gt;(Public)&lt;/div&gt;" style="sketch=0;points=[[0,0,0],[0.25,0,0],[0.5,0,0],[0.75,0,0],[1,0,0],[0,1,0],[0.25,1,0],[0.5,1,0],[0.75,1,0],[1,1,0],[0,0.25,0],[0,0.5,0],[0,0.75,0],[1,0.25,0],[1,0.5,0],[1,0.75,0]];outlineConnect=0;fontColor=#232F3E;fillColor=#8C4FFF;strokeColor=#ffffff;dashed=0;verticalLabelPosition=bottom;verticalAlign=top;align=center;html=1;fontSize=12;fontStyle=0;aspect=fixed;shape=mxgraph.aws4.resourceIcon;resIcon=mxgraph.aws4.api_gateway;" vertex="1" parent="MMq51jOwDCAHuKI7-5PV-5">
          <mxGeometry x="200" y="40" width="78" height="78" as="geometry" />
        </mxCell>
        <mxCell id="MMq51jOwDCAHuKI7-5PV-18" value="&lt;div&gt;Frontend&lt;/div&gt;Lambda" style="sketch=0;points=[[0,0,0],[0.25,0,0],[0.5,0,0],[0.75,0,0],[1,0,0],[0,1,0],[0.25,1,0],[0.5,1,0],[0.75,1,0],[1,1,0],[0,0.25,0],[0,0.5,0],[0,0.75,0],[1,0.25,0],[1,0.5,0],[1,0.75,0]];outlineConnect=0;fontColor=#232F3E;fillColor=#ED7100;strokeColor=#ffffff;dashed=0;verticalLabelPosition=bottom;verticalAlign=top;align=center;html=1;fontSize=12;fontStyle=0;aspect=fixed;shape=mxgraph.aws4.resourceIcon;resIcon=mxgraph.aws4.lambda;" vertex="1" parent="MMq51jOwDCAHuKI7-5PV-5">
          <mxGeometry x="360" y="40" width="78" height="78" as="geometry" />
        </mxCell>
        <mxCell id="MMq51jOwDCAHuKI7-5PV-6" value="VPC" style="points=[[0,0],[0.25,0],[0.5,0],[0.75,0],[1,0],[1,0.25],[1,0.5],[1,0.75],[1,1],[0.75,1],[0.5,1],[0.25,1],[0,1],[0,0.75],[0,0.5],[0,0.25]];outlineConnect=0;gradientColor=none;html=1;whiteSpace=wrap;fontSize=12;fontStyle=0;container=1;pointerEvents=0;collapsible=0;recursiveResize=0;shape=mxgraph.aws4.group;grIcon=mxgraph.aws4.group_vpc2;strokeColor=#8C4FFF;fillColor=none;verticalAlign=top;align=left;spacingLeft=30;fontColor=#AAB7B8;dashed=0;" vertex="1" parent="MMq51jOwDCAHuKI7-5PV-5">
          <mxGeometry x="160" y="200" width="1240" height="920" as="geometry" />
        </mxCell>
        <mxCell id="MMq51jOwDCAHuKI7-5PV-7" value="Private subnet" style="points=[[0,0],[0.25,0],[0.5,0],[0.75,0],[1,0],[1,0.25],[1,0.5],[1,0.75],[1,1],[0.75,1],[0.5,1],[0.25,1],[0,1],[0,0.75],[0,0.5],[0,0.25]];outlineConnect=0;gradientColor=none;html=1;whiteSpace=wrap;fontSize=12;fontStyle=0;container=1;pointerEvents=0;collapsible=0;recursiveResize=0;shape=mxgraph.aws4.group;grIcon=mxgraph.aws4.group_security_group;grStroke=0;strokeColor=#00A4A6;fillColor=#E6F6F7;verticalAlign=top;align=left;spacingLeft=30;fontColor=#147EBA;dashed=0;" vertex="1" parent="MMq51jOwDCAHuKI7-5PV-6">
          <mxGeometry x="40" y="40" width="600" height="320" as="geometry" />
        </mxCell>
        <mxCell id="MMq51jOwDCAHuKI7-5PV-28" value="Fargate&lt;div&gt;(Bastion)&lt;/div&gt;" style="sketch=0;points=[[0,0,0],[0.25,0,0],[0.5,0,0],[0.75,0,0],[1,0,0],[0,1,0],[0.25,1,0],[0.5,1,0],[0.75,1,0],[1,1,0],[0,0.25,0],[0,0.5,0],[0,0.75,0],[1,0.25,0],[1,0.5,0],[1,0.75,0]];outlineConnect=0;fontColor=#232F3E;fillColor=#ED7100;strokeColor=#ffffff;dashed=0;verticalLabelPosition=bottom;verticalAlign=top;align=center;html=1;fontSize=12;fontStyle=0;aspect=fixed;shape=mxgraph.aws4.resourceIcon;resIcon=mxgraph.aws4.fargate;" vertex="1" parent="MMq51jOwDCAHuKI7-5PV-7">
          <mxGeometry x="38" y="40" width="78" height="78" as="geometry" />
        </mxCell>
        <mxCell id="MMq51jOwDCAHuKI7-5PV-40" value="Hyperplane ENI" style="sketch=0;outlineConnect=0;fontColor=#232F3E;gradientColor=none;fillColor=#8C4FFF;strokeColor=none;dashed=0;verticalLabelPosition=bottom;verticalAlign=top;align=center;html=1;fontSize=12;fontStyle=0;aspect=fixed;pointerEvents=1;shape=mxgraph.aws4.elastic_network_interface;" vertex="1" parent="MMq51jOwDCAHuKI7-5PV-7">
          <mxGeometry x="160" y="40" width="78" height="78" as="geometry" />
        </mxCell>
        <mxCell id="MMq51jOwDCAHuKI7-5PV-42" value="Hyperplane ENI" style="sketch=0;outlineConnect=0;fontColor=#232F3E;gradientColor=none;fillColor=#8C4FFF;strokeColor=none;dashed=0;verticalLabelPosition=bottom;verticalAlign=top;align=center;html=1;fontSize=12;fontStyle=0;aspect=fixed;pointerEvents=1;shape=mxgraph.aws4.elastic_network_interface;" vertex="1" parent="MMq51jOwDCAHuKI7-5PV-7">
          <mxGeometry x="480" y="40" width="78" height="78" as="geometry" />
        </mxCell>
        <mxCell id="MMq51jOwDCAHuKI7-5PV-35" value="Private subnet" style="points=[[0,0],[0.25,0],[0.5,0],[0.75,0],[1,0],[1,0.25],[1,0.5],[1,0.75],[1,1],[0.75,1],[0.5,1],[0.25,1],[0,1],[0,0.75],[0,0.5],[0,0.25]];outlineConnect=0;gradientColor=none;html=1;whiteSpace=wrap;fontSize=12;fontStyle=0;container=1;pointerEvents=0;collapsible=0;recursiveResize=0;shape=mxgraph.aws4.group;grIcon=mxgraph.aws4.group_security_group;grStroke=0;strokeColor=#00A4A6;fillColor=#E6F6F7;verticalAlign=top;align=left;spacingLeft=30;fontColor=#147EBA;dashed=0;" vertex="1" parent="MMq51jOwDCAHuKI7-5PV-6">
          <mxGeometry x="40" y="400" width="600" height="320" as="geometry" />
        </mxCell>
        <mxCell id="MMq51jOwDCAHuKI7-5PV-38" value="Amazon Aurora Serverless v2&lt;div&gt;(PostgreSQL)&lt;/div&gt;" style="sketch=0;points=[[0,0,0],[0.25,0,0],[0.5,0,0],[0.75,0,0],[1,0,0],[0,1,0],[0.25,1,0],[0.5,1,0],[0.75,1,0],[1,1,0],[0,0.25,0],[0,0.5,0],[0,0.75,0],[1,0.25,0],[1,0.5,0],[1,0.75,0]];outlineConnect=0;fontColor=#232F3E;fillColor=#C925D1;strokeColor=#ffffff;dashed=0;verticalLabelPosition=bottom;verticalAlign=top;align=center;html=1;fontSize=12;fontStyle=0;aspect=fixed;shape=mxgraph.aws4.resourceIcon;resIcon=mxgraph.aws4.aurora;" vertex="1" parent="MMq51jOwDCAHuKI7-5PV-35">
          <mxGeometry x="38" y="160" width="78" height="78" as="geometry" />
        </mxCell>
        <mxCell id="MMq51jOwDCAHuKI7-5PV-39" value="RDS Proxy" style="sketch=0;outlineConnect=0;fontColor=#232F3E;gradientColor=none;fillColor=#C925D1;strokeColor=none;dashed=0;verticalLabelPosition=bottom;verticalAlign=top;align=center;html=1;fontSize=12;fontStyle=0;aspect=fixed;pointerEvents=1;shape=mxgraph.aws4.rds_proxy;" vertex="1" parent="MMq51jOwDCAHuKI7-5PV-35">
          <mxGeometry x="38" y="40" width="78" height="78" as="geometry" />
        </mxCell>
        <mxCell id="MMq51jOwDCAHuKI7-5PV-34" value="" style="sketch=0;outlineConnect=0;fontColor=#232F3E;gradientColor=none;fillColor=#8C4FFF;strokeColor=none;dashed=0;verticalLabelPosition=bottom;verticalAlign=top;align=center;html=1;fontSize=12;fontStyle=0;aspect=fixed;pointerEvents=1;shape=mxgraph.aws4.endpoints;" vertex="1" parent="MMq51jOwDCAHuKI7-5PV-6">
          <mxGeometry x="710" y="250" width="78" height="78" as="geometry" />
        </mxCell>
        <mxCell id="MMq51jOwDCAHuKI7-5PV-29" value="" style="rounded=0;orthogonalLoop=1;jettySize=auto;html=1;" edge="1" parent="MMq51jOwDCAHuKI7-5PV-5" source="MMq51jOwDCAHuKI7-5PV-19" target="MMq51jOwDCAHuKI7-5PV-28">
          <mxGeometry relative="1" as="geometry" />
        </mxCell>
        <mxCell id="MMq51jOwDCAHuKI7-5PV-19" value="System Manager&lt;br&gt;Session Manager" style="sketch=0;points=[[0,0,0],[0.25,0,0],[0.5,0,0],[0.75,0,0],[1,0,0],[0,1,0],[0.25,1,0],[0.5,1,0],[0.75,1,0],[1,1,0],[0,0.25,0],[0,0.5,0],[0,0.75,0],[1,0.25,0],[1,0.5,0],[1,0.75,0]];outlineConnect=0;fontColor=#232F3E;fillColor=#DD344C;strokeColor=#ffffff;dashed=0;verticalLabelPosition=bottom;verticalAlign=top;align=center;html=1;fontSize=12;fontStyle=0;aspect=fixed;shape=mxgraph.aws4.resourceIcon;resIcon=mxgraph.aws4.secrets_manager;" vertex="1" parent="MMq51jOwDCAHuKI7-5PV-5">
          <mxGeometry x="40" y="280" width="78" height="78" as="geometry" />
        </mxCell>
        <mxCell id="MMq51jOwDCAHuKI7-5PV-32" value="" style="edgeStyle=orthogonalEdgeStyle;rounded=0;orthogonalLoop=1;jettySize=auto;html=1;" edge="1" parent="MMq51jOwDCAHuKI7-5PV-5" source="MMq51jOwDCAHuKI7-5PV-24" target="MMq51jOwDCAHuKI7-5PV-27">
          <mxGeometry relative="1" as="geometry" />
        </mxCell>
        <mxCell id="MMq51jOwDCAHuKI7-5PV-24" value="&lt;div&gt;Backend&lt;/div&gt;API Gataway&lt;div&gt;(Private)&lt;/div&gt;" style="sketch=0;points=[[0,0,0],[0.25,0,0],[0.5,0,0],[0.75,0,0],[1,0,0],[0,1,0],[0.25,1,0],[0.5,1,0],[0.75,1,0],[1,1,0],[0,0.25,0],[0,0.5,0],[0,0.75,0],[1,0.25,0],[1,0.5,0],[1,0.75,0]];outlineConnect=0;fontColor=#232F3E;fillColor=#8C4FFF;strokeColor=#ffffff;dashed=0;verticalLabelPosition=bottom;verticalAlign=top;align=center;html=1;fontSize=12;fontStyle=0;aspect=fixed;shape=mxgraph.aws4.resourceIcon;resIcon=mxgraph.aws4.api_gateway;" vertex="1" parent="MMq51jOwDCAHuKI7-5PV-5">
          <mxGeometry x="520" y="40" width="78" height="78" as="geometry" />
        </mxCell>
        <mxCell id="MMq51jOwDCAHuKI7-5PV-27" value="&lt;div&gt;Backend&lt;/div&gt;Lambda" style="sketch=0;points=[[0,0,0],[0.25,0,0],[0.5,0,0],[0.75,0,0],[1,0,0],[0,1,0],[0.25,1,0],[0.5,1,0],[0.75,1,0],[1,1,0],[0,0.25,0],[0,0.5,0],[0,0.75,0],[1,0.25,0],[1,0.5,0],[1,0.75,0]];outlineConnect=0;fontColor=#232F3E;fillColor=#ED7100;strokeColor=#ffffff;dashed=0;verticalLabelPosition=bottom;verticalAlign=top;align=center;html=1;fontSize=12;fontStyle=0;aspect=fixed;shape=mxgraph.aws4.resourceIcon;resIcon=mxgraph.aws4.lambda;" vertex="1" parent="MMq51jOwDCAHuKI7-5PV-5">
          <mxGeometry x="680" y="40" width="78" height="78" as="geometry" />
        </mxCell>
        <mxCell id="MMq51jOwDCAHuKI7-5PV-31" value="" style="rounded=0;orthogonalLoop=1;jettySize=auto;html=1;" edge="1" parent="MMq51jOwDCAHuKI7-5PV-5" source="MMq51jOwDCAHuKI7-5PV-18" target="MMq51jOwDCAHuKI7-5PV-40">
          <mxGeometry relative="1" as="geometry" />
        </mxCell>
        <mxCell id="MMq51jOwDCAHuKI7-5PV-41" value="" style="rounded=0;orthogonalLoop=1;jettySize=auto;html=1;" edge="1" parent="MMq51jOwDCAHuKI7-5PV-5" source="MMq51jOwDCAHuKI7-5PV-40" target="MMq51jOwDCAHuKI7-5PV-24">
          <mxGeometry relative="1" as="geometry">
            <mxPoint x="409" y="128" as="sourcePoint" />
            <mxPoint x="409" y="290" as="targetPoint" />
          </mxGeometry>
        </mxCell>
        <mxCell id="MMq51jOwDCAHuKI7-5PV-43" value="" style="rounded=0;orthogonalLoop=1;jettySize=auto;html=1;" edge="1" parent="MMq51jOwDCAHuKI7-5PV-5" source="MMq51jOwDCAHuKI7-5PV-27" target="MMq51jOwDCAHuKI7-5PV-42">
          <mxGeometry relative="1" as="geometry">
            <mxPoint x="409" y="128" as="sourcePoint" />
            <mxPoint x="409" y="290" as="targetPoint" />
          </mxGeometry>
        </mxCell>
        <mxCell id="MMq51jOwDCAHuKI7-5PV-11" value="Identity and Access&lt;div&gt;Management&lt;/div&gt;&lt;div&gt;(IAM)&lt;/div&gt;" style="sketch=0;points=[[0,0,0],[0.25,0,0],[0.5,0,0],[0.75,0,0],[1,0,0],[0,1,0],[0.25,1,0],[0.5,1,0],[0.75,1,0],[1,1,0],[0,0.25,0],[0,0.5,0],[0,0.75,0],[1,0.25,0],[1,0.5,0],[1,0.75,0]];outlineConnect=0;fontColor=#232F3E;fillColor=#DD344C;strokeColor=#ffffff;dashed=0;verticalLabelPosition=bottom;verticalAlign=top;align=center;html=1;fontSize=12;fontStyle=0;aspect=fixed;shape=mxgraph.aws4.resourceIcon;resIcon=mxgraph.aws4.identity_and_access_management;" vertex="1" parent="MMq51jOwDCAHuKI7-5PV-2">
          <mxGeometry x="80" y="40" width="78" height="78" as="geometry" />
        </mxCell>
        <mxCell id="MMq51jOwDCAHuKI7-5PV-14" value="Cloud Front" style="sketch=0;points=[[0,0,0],[0.25,0,0],[0.5,0,0],[0.75,0,0],[1,0,0],[0,1,0],[0.25,1,0],[0.5,1,0],[0.75,1,0],[1,1,0],[0,0.25,0],[0,0.5,0],[0,0.75,0],[1,0.25,0],[1,0.5,0],[1,0.75,0]];outlineConnect=0;fontColor=#232F3E;fillColor=#8C4FFF;strokeColor=#ffffff;dashed=0;verticalLabelPosition=bottom;verticalAlign=top;align=center;html=1;fontSize=12;fontStyle=0;aspect=fixed;shape=mxgraph.aws4.resourceIcon;resIcon=mxgraph.aws4.cloudfront;" vertex="1" parent="MMq51jOwDCAHuKI7-5PV-2">
          <mxGeometry x="200" y="40" width="78" height="78" as="geometry" />
        </mxCell>
        <mxCell id="MMq51jOwDCAHuKI7-5PV-15" value="WAF" style="sketch=0;points=[[0,0,0],[0.25,0,0],[0.5,0,0],[0.75,0,0],[1,0,0],[0,1,0],[0.25,1,0],[0.5,1,0],[0.75,1,0],[1,1,0],[0,0.25,0],[0,0.5,0],[0,0.75,0],[1,0.25,0],[1,0.5,0],[1,0.75,0]];outlineConnect=0;fontColor=#232F3E;fillColor=#DD344C;strokeColor=#ffffff;dashed=0;verticalLabelPosition=bottom;verticalAlign=top;align=center;html=1;fontSize=12;fontStyle=0;aspect=fixed;shape=mxgraph.aws4.resourceIcon;resIcon=mxgraph.aws4.waf;" vertex="1" parent="MMq51jOwDCAHuKI7-5PV-2">
          <mxGeometry x="320" y="40" width="78" height="78" as="geometry" />
        </mxCell>
        <mxCell id="MMq51jOwDCAHuKI7-5PV-16" value="Route 53" style="sketch=0;points=[[0,0,0],[0.25,0,0],[0.5,0,0],[0.75,0,0],[1,0,0],[0,1,0],[0.25,1,0],[0.5,1,0],[0.75,1,0],[1,1,0],[0,0.25,0],[0,0.5,0],[0,0.75,0],[1,0.25,0],[1,0.5,0],[1,0.75,0]];outlineConnect=0;fontColor=#232F3E;fillColor=#8C4FFF;strokeColor=#ffffff;dashed=0;verticalLabelPosition=bottom;verticalAlign=top;align=center;html=1;fontSize=12;fontStyle=0;aspect=fixed;shape=mxgraph.aws4.resourceIcon;resIcon=mxgraph.aws4.route_53;" vertex="1" parent="MMq51jOwDCAHuKI7-5PV-2">
          <mxGeometry x="440" y="40" width="78" height="78" as="geometry" />
        </mxCell>
        <mxCell id="MMq51jOwDCAHuKI7-5PV-3" value="User" style="sketch=0;outlineConnect=0;gradientColor=none;fontColor=#545B64;strokeColor=none;fillColor=#879196;dashed=0;verticalLabelPosition=bottom;verticalAlign=top;align=center;html=1;fontSize=12;fontStyle=0;aspect=fixed;shape=mxgraph.aws4.illustration_desktop;pointerEvents=1" vertex="1" parent="1">
          <mxGeometry x="80" y="-520" width="100" height="91" as="geometry" />
        </mxCell>
        <mxCell id="MMq51jOwDCAHuKI7-5PV-4" value="Developer" style="sketch=0;outlineConnect=0;gradientColor=none;fontColor=#545B64;strokeColor=none;fillColor=#879196;dashed=0;verticalLabelPosition=bottom;verticalAlign=top;align=center;html=1;fontSize=12;fontStyle=0;aspect=fixed;shape=mxgraph.aws4.illustration_desktop;pointerEvents=1" vertex="1" parent="1">
          <mxGeometry x="80" y="-280" width="100" height="91" as="geometry" />
        </mxCell>
        <mxCell id="MMq51jOwDCAHuKI7-5PV-23" value="" style="endArrow=classic;html=1;rounded=0;" edge="1" parent="1" source="MMq51jOwDCAHuKI7-5PV-4" target="MMq51jOwDCAHuKI7-5PV-19">
          <mxGeometry width="50" height="50" relative="1" as="geometry">
            <mxPoint x="340" y="-290" as="sourcePoint" />
            <mxPoint x="390" y="-340" as="targetPoint" />
          </mxGeometry>
        </mxCell>
        <mxCell id="MMq51jOwDCAHuKI7-5PV-33" value="" style="endArrow=classic;html=1;rounded=0;" edge="1" parent="1" source="MMq51jOwDCAHuKI7-5PV-3" target="MMq51jOwDCAHuKI7-5PV-17">
          <mxGeometry width="50" height="50" relative="1" as="geometry">
            <mxPoint x="190" y="-225" as="sourcePoint" />
            <mxPoint x="490" y="-230" as="targetPoint" />
          </mxGeometry>
        </mxCell>
      </root>
    </mxGraphModel>
  </diagram>
</mxfile>
